<svg xmlns="http://www.w3.org/2000/svg" width="287" height="414" viewBox="0 0 287 414" preserveAspectRatio="xMidYMid meet"><g fill="none" fill-rule="evenodd"><path fill="#947DE8" d="M108.295 207.275l-21.5-158.71 142.573 121.463 22.958 159.314-144.031-122.067zm150.663 168.158l26.195-18.265-29.578-205.38L80.555 2.647 54.363 20.923 82.11 225.53l176.849 149.902z"/><path fill="#FCFCFE" d="M82.118 225.538L60.614 66.812l142.375 121.346 23.109 159.42-143.98-122.04zM54.385 20.898L28.17 39.172l27.734 204.611L232.71 393.71l26.252-18.285-29.556-205.393L54.385 20.898z"/><path fill="#E0D9FA" d="M55.895 243.777L34.435 85.041l142.562 121.44 22.947 159.433L55.895 243.777zm-27.613-204.7L2 57.433l27.676 204.579 176.906 149.906 26.156-18.231-29.52-205.405L28.282 39.077z"/><path fill="#000" fill-opacity=".22" d="M206.599 411.908l-19.927-138.215-10.279-8.703z"/><path stroke="#2D284F" d="M80.586 2.017l175.457 149.512 29.65 205.873-79.14 55.146-177.347-150.28L1.464 57.199 80.586 2.016zm19.297 139.431l8.882 65.57 77.224 65.448-9.46-65.727-76.646-65.29z"/></g></svg>