<svg xmlns="http://www.w3.org/2000/svg" width="346" height="414" viewBox="0 0 346 414"><g fill="none" fill-rule="evenodd"><path fill="#927EE9" d="M31.695 340.829L146.842 16.373l102.96 43.81 2.332 192.237-110.402 136.265L31.695 340.83zm86.3-338.036L1.058 335.144l136.069 59.197 30.632 5.681 114.986-141.94-2.336-192.248L148.624 8.472"/><path fill="#FFF" d="M63.558 345.82L177.471 22.055 280.41 65.836l2.338 192.231-110.418 136.31L63.56 345.82zM148.624 8.472L31.69 340.823l136.075 59.195 30.623 5.68L313.4 263.775l-2.359-192.259-131.786-57.364-30.632-5.679z"/><path fill="#D5CEF5" d="M92.957 352.172L207.838 26.595l103.202 44.93 2.359 192.253-110.432 136.269-110.01-47.875zm86.299-338.02L62.32 346.501 198.39 405.7l30.632 5.681 114.984-141.938-2.331-192.25L210.2 19.836l-30.943-5.684z"/><path fill="#000" opacity=".22" d="M229.062 411.403l-78.175-34.023 5.708-7.035zM209.9 43.203l-6.891-2.925 7.211-20.44z"/><path stroke="#000" stroke-opacity=".7" d="M179.347 13.66l30.631 5.681.109.033L342.17 76.862l2.337 192.754-115.285 142.31-.293-.054-30.631-5.682-30.634-5.677-30.627-5.68-.109-.034L.433 335.417 117.665 2.223l31.05 5.757 30.632 5.68zm23.959 27.282L93.583 351.9l57.157 24.874 100.892-124.528-2.325-191.729-46.001-19.574z"/></g></svg>