<svg xmlns="http://www.w3.org/2000/svg" width="313" height="100" viewBox="0 0 313 100">
  <g fill="#FFFFFF" transform="translate(0 22.8)">
    <path d="M37.0341082 11.9624456L18.9721421 23.4913602 37.0341082 35.0202747 18.9721421 46.5491893.910175931 34.9242004 18.9721421 23.3952859.910175931 11.9624456 18.9721421.433531092 37.0341082 11.9624456zM18.8760678 50.2000122L36.9380339 38.6710977 55 50.2000122 36.9380339 61.7289268 18.8760678 50.2000122zM37.0341082 34.9242004L55.0960743 23.3952859 37.0341082 11.9624456 55 .433531092 73.0619661 11.9624456 55 23.4913602 73.0619661 35.0202747 55 46.5491893 37.0341082 34.9242004zM87.030799 11.9470662L101.634091 11.9470662C110.953297 11.9470662 118.63924 17.3272263 118.63924 29.6247351L118.63924 32.2187409C118.63924 44.612324 111.433668 50.1846327 101.922314 50.1846327L87 50.2000122 87.030799 11.9470662zM95.1971135 18.8644149L95.1971135 43.1712097 101.441942 43.1712097C106.726028 43.1712097 110.280777 39.7125354 110.280777 32.0265923L110.280777 30.0090323C110.280777 22.3230893 106.533879 18.8644149 101.153719 18.8644149L95.1971135 18.8644149zM122.962583 19.2487121L129.495634 19.2487121 130.552451 26.4542836C131.801417 21.554495 134.971869 18.9604892 140.736326 18.9604892L142.753886 18.9604892 142.753886 27.2228779 139.391286 27.2228779C132.76216 27.2228779 131.128897 29.5286609 131.128897 36.0617124L131.128897 50.280707 123.058657 50.280707 123.058657 19.2487121 122.962583 19.2487121zM144.387149 35.3891924L144.387149 34.5245238C144.387149 24.1485007 151.016275 18.4801177 160.047258 18.4801177 169.270389 18.4801177 175.707367 24.1485007 175.707367 34.5245238L175.707367 35.3891924C175.707367 45.5730669 169.462538 51.0493013 160.047258 51.0493013 150.055532 50.953227 144.387149 45.5730669 144.387149 35.3891924zM167.444978 35.2931181L167.444978 34.5245238C167.444978 28.7600666 164.562749 25.3013922 159.951183 25.3013922 155.435692 25.3013922 152.457389 28.4718437 152.457389 34.5245238L152.457389 35.2931181C152.457389 40.8654268 155.339618 44.0358783 159.951183 44.0358783 164.562749 43.939804 167.444978 40.8654268 167.444978 35.2931181zM186.659836 19.2487121L187.42843 25.1092436C189.061693 21.1701978 192.520367 18.4801177 197.612304 18.4801177 205.490396 18.4801177 210.678407 24.1485007 210.678407 34.6205981L210.678407 35.4852667C210.678407 45.6691412 204.91395 51.0493013 197.612304 51.0493013 192.712516 51.0493013 189.349916 48.8395927 187.716653 45.2848441L187.716653 60.944953 179.838561 60.944953 179.934635 19.2487121 186.659836 19.2487121zM202.512093 35.2931181L202.512093 34.6205981C202.512093 28.4718437 199.341642 25.3974665 195.114373 25.3974665 190.598881 25.3974665 187.620578 28.8561408 187.620578 34.6205981L187.620578 35.1970438C187.620578 40.6732782 190.502807 44.1319526 195.018299 44.1319526 199.629864 44.0358783 202.512093 41.0575754 202.512093 35.2931181zM222.591619 44.5162498L221.919099 50.1846327 215.00175 50.1846327 215.00175 8.87268896 222.879842 8.87268896 222.879842 24.7249465C224.609179 20.6898264 228.067854 18.4801177 232.967642 18.4801177 240.365362 18.576192 245.841597 23.6681293 245.841597 33.9480781L245.841597 34.908821C245.841597 45.1887698 240.653585 51.0493013 232.775494 51.0493013 227.587482 50.953227 224.224882 48.5513699 222.591619 44.5162498zM237.579208 34.908821L237.579208 34.1402267C237.579208 28.4718437 234.504831 25.3013922 230.181488 25.3013922 225.762071 25.3013922 222.687693 28.8561408 222.687693 34.236301L222.687693 34.908821C222.687693 40.6732782 225.665996 44.0358783 230.085414 44.0358783 234.793054 44.0358783 237.579208 41.0575754 237.579208 34.908821zM249.300271 35.3891924L249.300271 34.5245238C249.300271 24.1485007 255.929397 18.4801177 264.96038 18.4801177 274.183512 18.4801177 280.620489 24.1485007 280.620489 34.5245238L280.620489 35.3891924C280.620489 45.5730669 274.279586 51.0493013 264.96038 51.0493013 254.968654 50.953227 249.300271 45.5730669 249.300271 35.3891924zM272.454175 35.2931181L272.454175 34.5245238C272.454175 28.7600666 269.571946 25.3013922 264.96038 25.3013922 260.444889 25.3013922 257.466586 28.4718437 257.466586 34.5245238L257.466586 35.2931181C257.466586 40.8654268 260.348814 44.0358783 264.96038 44.0358783 269.571946 43.939804 272.454175 40.8654268 272.454175 35.2931181zM291.188661 34.1402267L280.332266 19.2487121 289.651472 19.2487121 295.896301 28.567918 302.237204 19.2487121 311.460335 19.2487121 300.411792 34.0441524 312.036781 50.1846327 302.909724 50.1846327 295.800227 39.9046839 288.882878 50.1846327 279.371523 50.1846327 291.188661 34.1402267z"/>
  </g>
</svg>
