<svg xmlns="http://www.w3.org/2000/svg" width="278" height="100" viewBox="0 0 278 100">
  <g fill="#FFFFFF" fill-rule="evenodd">
    <path d="M272.434621 24.1448157L272.434621 22.3694929 273.855925 22.3694929C274.566578 22.3694929 275.158589 22.4868894 275.158589 23.3158525 275.158589 24.264608 274.092011 24.1448157 273.382557 24.1448157L272.434621 24.1448157zM274.210652 24.6191934C275.158589 24.6191934 275.868043 24.264608 275.868043 23.3158525 275.868043 22.8426727 275.631957 22.4868894 275.276032 22.2508984 274.921305 22.0137096 274.446738 22.0137096 273.973369 22.0137096L271.84261 22.0137096 271.84261 26.9886863 272.434621 26.9886863 272.434621 24.6191934 273.618642 24.6191934 275.039947 26.9886863 275.749401 26.9886863 274.210652 24.6191934zM273.498802 29C275.986684 29 278 26.9886863 278 24.5017969 278 22.0137096 275.986684 20 273.498802 20 271.013316 20 269 22.0137096 269 24.5017969 269 26.9886863 271.013316 29 273.498802 29zM269.592011 24.5017969C269.592011 22.2508984 271.369241 20.5917743 273.498802 20.5917743 275.631957 20.5917743 277.407989 22.2508984 277.407989 24.5017969 277.407989 26.6341009 275.631957 28.4094237 273.498802 28.4094237 271.369241 28.4094237 269.592011 26.6341009 269.592011 24.5017969zM0 73L0 31 16.1240248 31 16.1240248 73 0 73zM63.6248383 52.0005695C63.6031709 58.0209073 65.7208817 63.220083 69.0782004 67.068498 69.4294416 67.429536 74.4163827 72.4886243 77.4737779 72.6993248L45.2747653 72.6993248 36.3876782 42.7673347 36.3876782 73 23.5331618 73 23.5331618 31 46.9397399 31 55.5622558 60.6962334 55.5622558 31 69.5081288 31 69.5081288 37.395043C65.1632293 42.3504895 63.6373827 48.2204897 63.6248383 52.0005695zM222.185161 31L234.818441 31 246 31 246 73 232.055267 73 232.055267 40.432546 222.513594 73 209.798206 73 200.678479 41.1284269 200.678479 73 175.330951 73 172.134427 63.7143748 158.626465 63.7143748 155.429942 72.6993248 130.153119 72.6993248 130.153119 61.5390352C130.153119 61.5390352 129.719769 57.33186 124.829761 57.33186 122.309492 57.33186 120.712941 57.33186 120.712941 57.33186L120.712941 72.6993248 97.0486336 72.6993248C111.212322 69.0126366 112.880718 64.7291537 112.880718 64.7291537L107.639469 46.7045855 93.9843961 50.0769314 97.3257493 60.3773355C97.3257493 60.3773355 92.6763646 62.4080321 91.2246436 62.4080321 89.7717822 62.4080321 84.3742994 61.5253681 82.2178152 55.0095995 80.1787915 48.8468964 82.3637856 43.2593486 88.4648912 39.4872414 94.5648564 35.716273 104.421278 38.0362557 104.421278 38.0362557L101.840567 31.0318898 127.661359 31.072891C127.661359 31.072891 144.227856 30.3303143 146.569084 37.7936654 148.473541 43.8663937 146.713914 50.3673563 137.562256 53.1246848 137.562256 53.1246848 143.518531 55.1667706 144.971393 58.4981154L155.139142 31.072891 176.783812 31.072891 186.733746 57.1644385 186.733746 31 211.028691 31 216.935929 54.2032432 222.185161 31zM161.240248 53.7055346L164.153953 53.7055346 170.827536 53.7055346 166.033322 40.6478022 161.240248 53.7055346zM120.698116 49.7865065C132.428204 50.9242889 131.187456 44.2741275 131.187456 44.2741275 131.187456 38.3278195 120.698116 40.0669523 120.698116 40.0669523L120.698116 49.7865065zM257.164978 72L257.164978 69.4341165 263.761725 67.8936769 257.164978 66.371427 257.164978 63.802133 266.835022 63.802133 266.835022 65.3937311 259.223663 65.3937311 266.835022 67.0785513 266.835022 68.7281291 259.223663 70.4061282 266.835022 70.4061282 266.835022 72 257.164978 72zM257.164978 61.2032806L257.164978 59.490039 266.835022 59.490039 266.835022 61.2032806 257.164978 61.2032806zM263.879566 49.8165331C264.935423 50.070052 265.720245 50.495236 266.231676 51.086401 266.744285 51.6798398 267 52.4313014 267 53.3407861 267 54.4696838 266.561631 55.3950845 265.683714 56.1215353 264.806976 56.8457124 263.607353 57.2095063 262.086024 57.2095063 260.476314 57.2095063 259.226019 56.8445756 258.336319 56.1147142 257.44544 55.3848528 257 54.4264833 257 53.238469 257 52.1993828 257.349988 51.3558359 258.048786 50.7078281 258.462409 50.3212971 259.05515 50.0325357 259.830544 49.8392702L260.291303 51.5354591C259.790478 51.6355024 259.395711 51.8446838 259.103465 52.1641403 258.813575 52.4824599 258.668631 52.8689909 258.668631 53.3248701 258.668631 53.9535513 258.926703 54.4639996 259.441669 54.855078 259.955456 55.2472932 260.788593 55.4428324 261.941079 55.4428324 263.163092 55.4428324 264.033938 55.2495669 264.553618 54.8641728 265.072119 54.4776418 265.331369 53.9762884 265.331369 53.3589757 265.331369 52.9042334 265.16757 52.5120182 264.836436 52.1846037 264.506481 51.8560524 263.98798 51.6207233 263.279755 51.4786163L263.879566 49.8165331zM257.164978 47.3916197L257.164978 43.7843764C257.164978 42.8771654 257.25218 42.2177891 257.425407 41.8073841 257.599811 41.3969792 257.907377 41.067291 258.351638 40.8205933 258.797078 40.5738956 259.303794 40.4499783 259.876502 40.4499783 260.601226 40.4499783 261.201037 40.6375595 261.67358 41.0115851 262.147301 41.3856107 262.444261 41.9449437 262.567994 42.6895842 262.814282 42.3189693 263.084139 42.0142919 263.378741 41.7721416 263.673344 41.5311282 264.196559 41.2071243 264.948386 40.7967194L266.835022 39.7610437 266.835022 41.8096579 264.731558 43.0488307C263.979731 43.4887939 263.504831 43.7900606 263.309215 43.952631 263.113599 44.1140645 262.980438 44.2857298 262.907377 44.4676267 262.834315 44.6495236 262.797785 44.9371481 262.797785 45.3305002L262.797785 45.6772412 266.835022 45.6772412 266.835022 47.3916197 257.164978 47.3916197zM261.255244 45.6772412L261.255244 44.409647C261.255244 43.5865634 261.215178 43.0738415 261.136224 42.8692074 261.057271 42.6645734 260.919397 42.5042767 260.726137 42.3894543 260.532878 42.273495 260.291303 42.2155154 260.001414 42.2155154 259.676173 42.2155154 259.413387 42.2916847 259.213057 42.4440234 259.012727 42.5963621 258.886637 42.8123647 258.833608 43.0897575 258.812397 43.2284539 258.800613 43.6456799 258.800613 44.339162L258.800613 45.6772412 261.255244 45.6772412zM259.579543 37.8454417C259.086967 37.6521763 258.645062 37.3895626 258.25383 37.055327 257.862597 36.7210914 257.572708 36.3561607 257.382984 35.9582612 257.127268 35.4296232 257 34.8191317 257 34.1279233 257 32.877382 257.441904 31.8780858 258.325713 31.1266241 259.209522 30.3762993 260.438605 30 262.012963 30 263.574358 30 264.79637 30.3728887 265.677822 31.1186661 266.559274 31.8633066 267 32.8591923 267 34.1063231 267 35.3670961 266.561631 36.3709398 265.683714 37.1155803 264.806976 37.8602209 263.599104 38.2331096 262.058921 38.2331096 261.073769 38.2331096 260.247702 38.1046449 259.579543 37.8454417zM261.994108 36.4675725C263.087674 36.4675725 263.918454 36.2447488 264.484091 35.8025119 265.048551 35.3580013 265.331369 34.7952577 265.331369 34.1108705 265.331369 33.428757 265.050907 32.8682871 264.489984 32.4294608 263.930238 31.9917713 263.087674 31.7723582 261.967004 31.7723582 260.859298 31.7723582 260.033231 31.9849502 259.487627 32.4112711 258.942022 32.8387289 258.668631 33.4048831 258.668631 34.1108705 258.668631 34.8168579 258.945557 35.3864227 259.495876 35.8184279 260.048551 36.2515699 260.880509 36.4675725 261.994108 36.4675725z"/>
  </g>
</svg>
