<svg xmlns="http://www.w3.org/2000/svg" width="264" height="100" viewBox="0 0 264 100">
  <g fill="#FFFFFF">
    <g transform="translate(0 20)">
      <path d="M32.3943298,0.667800611 C14.9907866,0.667800611 0.942143403,14.8212845 0.942143403,32.119987 C0.942143403,49.5235301 15.0956273,63.5721733 32.3943298,63.5721733 C49.6930323,63.5721733 63.8465161,49.4186895 63.8465161,32.119987 C63.9513568,14.7164439 49.7978729,0.667800611 32.3943298,0.667800611 Z M32.3943298,58.5398235 C17.8214834,58.5398235 5.97449322,46.6928333 5.97449322,32.119987 C5.97449322,17.5471406 17.8214834,5.70015043 32.3943298,5.70015043 C46.9671761,5.70015043 58.9190069,17.5471406 58.9190069,32.119987 C58.9190069,46.6928333 47.0720167,58.5398235 32.3943298,58.5398235 Z"/>
      <path d="M32.3943298 34.8458431C34.3629936 34.8458431 35.9589109 30.5274786 35.9589109 25.200506 35.9589109 19.8735334 34.3629936 15.5551688 32.3943298 15.5551688 30.425666 15.5551688 28.8297486 19.8735334 28.8297486 25.200506 28.8297486 30.5274786 30.425666 34.8458431 32.3943298 34.8458431zM41.3057826 33.3780744C42.8691332 33.3780744 44.1364793 29.9046073 44.1364793 25.6198685 44.1364793 21.3351296 42.8691332 17.8616625 41.3057826 17.8616625 39.7424319 17.8616625 38.4750858 21.3351296 38.4750858 25.6198685 38.4750858 29.9046073 39.7424319 33.3780744 41.3057826 33.3780744zM48.6446261 20.7971999C47.4913792 20.7971999 46.6526543 22.8940123 46.6526543 26.3537528 46.6526543 29.8134933 47.5962198 31.9103057 48.6446261 31.9103057 49.7978729 31.9103057 50.6365979 29.8134933 50.6365979 26.3537528 50.6365979 22.8940123 49.7978729 20.7971999 48.6446261 20.7971999zM23.5877176 33.3780744C25.1510682 33.3780744 26.4184144 29.9046073 26.4184144 25.6198685 26.4184144 21.3351296 25.1510682 17.8616625 23.5877176 17.8616625 22.0243669 17.8616625 20.7570208 21.3351296 20.7570208 25.6198685 20.7570208 29.9046073 22.0243669 33.3780744 23.5877176 33.3780744zM16.2488741 31.9103057C17.4021209 31.9103057 18.2408459 29.8134933 18.2408459 26.3537528 18.2408459 22.8940123 17.2972803 20.7971999 16.2488741 20.7971999 15.0956273 20.7971999 14.2569023 22.8940123 14.2569023 26.3537528 14.2569023 29.8134933 15.0956273 31.9103057 16.2488741 31.9103057zM32.3943298 47.0073552C26.523255 47.0073552 21.3860645 42.8137303 20.2328177 37.0474962L15.3053085 38.0959024C16.9827584 46.1686302 24.2167613 52.039705 32.3943298 52.039705 40.6767388 52.039705 47.9107417 46.1686302 49.483351 37.9910618L44.5558418 37.0474962C43.5074356 42.8137303 38.3702452 47.0073552 32.3943298 47.0073552z"/>
    </g>
    <g transform="translate(78 30)">
      <polygon points="21.548 1 17.469 1 17.469 11.146 12.343 1 7.113 1 7.113 17.423 11.192 17.423 11.192 7.485 16.423 17.423 21.548 17.423"/>
      <polygon points="28.452 17.423 32.95 17.423 32.95 4.556 37.971 4.661 37.971 1 23.536 1 23.536 4.661 28.556 4.556"/>
      <polygon points="44.038 10.414 50.837 10.414 50.837 7.381 44.038 7.381 44.038 4.452 52.092 4.452 52.092 1 39.644 1 39.644 17.423 52.615 17.423 52.615 14.075 44.038 14.075"/>
      <path d="M67.2593115 11.9832468C66.7362998 10.7280186 66.1086857 9.89119981 64.435048 9.68199511 66.6316974 9.47279041 68.8283468 8.74057395 68.8283468 5.49790108 68.8283468 2.25522821 66.8409021 1 62.9706151 1L54.7070294 1 54.7070294 17.4225691 59.1003282 17.4225691 59.1003282 10.6234163 60.8785681 10.6234163C61.7153869 10.7280186 62.1337963 11.2510304 62.4476034 11.9832468L63.5982292 14.8075103C64.121241 16.2719432 64.6442527 16.8995573 65.0626621 17.4225691L70.1881773 17.4225691C69.1421538 16.4811479 68.8283468 15.6443291 68.4099374 14.7029079L67.2593115 11.9832468zM62.029194 7.5899481L58.9957258 7.5899481 58.9957258 4.13807052 62.1337963 4.13807052C63.3890245 4.13807052 64.0166386 4.66108228 64.0166386 5.91631048 64.121241 7.17153869 63.1798198 7.5899481 62.029194 7.5899481zM79.3931842 14.4937032C76.7781254 14.4937032 75.1044878 12.6108609 75.1044878 9.26358571 75.1044878 6.33471989 76.5689207 4.24267287 79.3931842 4.24267287 82.2174477 4.24267287 83.3680735 6.23011754 83.2634712 8.4267669L87.970577 7.7991528C88.0751793 4.24267287 85.1463135.581590597 79.3931842.581590597 73.7446573.581590597 70.2927797 4.13807052 70.2927797 9.26358571 70.2927797 14.5983056 73.7446573 18.1547855 79.3931842 18.1547855 84.9371088 18.1547855 87.970577 14.7029079 88.0751793 11.3556327L83.2634712 11.0418257C83.2634712 12.7154633 81.9036406 14.4937032 79.3931842 14.4937032zM108.054228 9.26358571C108.054228 4.13807052 104.602351.476988246 98.9538238.476988246 93.4098992.476988246 89.9580216 4.13807052 89.9580216 9.26358571 89.9580216 14.7029079 93.4098992 18.2593879 98.9538238 18.2593879 104.602351 18.1547855 108.054228 14.7029079 108.054228 9.26358571zM94.7697298 9.26358571C94.7697298 6.43932224 95.9203556 4.13807052 99.0584261 4.13807052 102.196497 4.13807052 103.347123 6.54392459 103.347123 9.26358571 103.347123 12.0878492 102.196497 14.4937032 99.0584261 14.4937032 95.9203556 14.4937032 94.7697298 12.0878492 94.7697298 9.26358571z"/>
      <polygon points="129.079 17.423 129.079 1 122.594 1 119.874 11.774 117.259 1 110.46 1 110.46 17.423 114.33 17.423 114.226 4.87 117.678 17.527 121.339 17.527 124.895 4.661 124.686 17.423"/>
      <path d="M11.5062586 34.2134025C13.2844985 33.8995955 14.2259197 32.6443673 14.2259197 30.761525 14.2259197 27.8326591 12.0292703 26.5774309 7.74057395 26.5774309L0 26.5774309 0 43 8.47279041 43C12.8660891 43 14.8535338 41.22176 14.8535338 38.3974966 14.8535338 35.8870402 13.5983056 34.5272096 11.5062586 34.2134025zM4.39329873 29.5062968L7.74057395 29.5062968C8.99580216 29.5062968 9.62341627 30.0293085 9.62341627 31.075332 9.62341627 32.2259579 8.99580216 32.7489696 7.74057395 32.7489696L4.39329873 32.7489696 4.39329873 29.5062968zM7.74057395 39.9665318L4.39329873 39.9665318 4.39329873 35.6778354 7.74057395 35.6778354C9.51881392 35.6778354 10.3556327 36.4100519 10.3556327 37.8744848 10.2510304 39.3389177 9.51881392 39.9665318 7.74057395 39.9665318zM29.4978629 37.4560754C28.9748511 36.2008472 28.347237 35.3640284 26.6735994 35.1548237 28.8702488 34.945619 31.0668982 34.2134025 31.0668982 30.9707297 31.0668982 27.7280568 29.0794535 26.4728286 25.2091665 26.4728286L16.9455808 26.4728286 16.9455808 43 21.3388795 43 21.3388795 36.2008472 23.1171195 36.2008472C23.9539383 36.3054496 24.3723477 36.8284613 24.6861548 37.5606778L25.8367806 40.3849412C26.3597924 41.8493741 26.8828041 42.4769882 27.3012135 43L32.4267287 43C31.3807052 42.0585788 31.0668982 41.22176 30.6484888 40.2803389L29.4978629 37.4560754zM24.3723477 33.167379L21.3388795 33.167379 21.3388795 29.7155015 24.4769501 29.7155015C25.7321783 29.7155015 26.3597924 30.2385132 26.3597924 31.4937414 26.3597924 32.6443673 25.5229736 33.167379 24.3723477 33.167379zM39.1212792 26.5774309L32.8451381 43 37.1338345 43 38.4936651 39.2343154 45.3974202 39.2343154 46.6526484 43 51.6735613 43 45.8158296 26.5774309 39.1212792 26.5774309zM39.7488933 35.9916425L42.1547473 29.2970921 44.3513967 35.9916425 39.7488933 35.9916425z"/>
      <polygon points="63.389 36.619 58.159 26.577 53.033 26.577 53.033 43 57.113 43 57.113 32.958 62.238 43 67.364 43 67.364 26.577 63.389 26.577"/>
      <path d="M77.8241489 26.5774309L70.397382 26.5774309 70.397382 43 77.8241489 43C83.2634712 43 86.6107464 39.8619295 86.6107464 34.8410166 86.6107464 29.6108991 83.2634712 26.5774309 77.8241489 26.5774309zM77.3011372 39.4435201L74.8952831 39.4435201 74.8952831 30.1339109 77.3011372 30.1339109C80.4392077 30.1339109 82.008243 31.9121508 82.008243 34.7364143 82.008243 37.9790872 80.230003 39.4435201 77.3011372 39.4435201zM103.974737 32.9581743C103.137918 32.7489696 102.405701 32.6443673 99.8952449 32.2259579 98.430812 31.9121508 97.9078003 31.4937414 97.9078003 30.761525 97.9078003 29.9247062 98.7446191 29.2970921 100.522859 29.2970921 102.719508 29.4016944 103.66093 30.3431156 103.66093 31.7029461L107.845024 30.9707297C107.740421 28.3556709 105.334567 26.2636239 100.941268 26.2636239 96.2341627 26.2636239 94.1421156 28.5648756 94.1421156 31.4937414 94.1421156 33.6903908 95.3973439 35.3640284 98.2216073 36.0962449 98.5354144 36.0962449 101.568883 36.8284613 102.301099 36.9330637 103.870134 37.2468707 104.497748 37.6652801 104.497748 38.6067013 104.497748 39.6527248 103.556327 40.1757365 101.568883 40.1757365 98.8492214 40.1757365 97.6985956 39.0251107 97.8031979 37.2468707L93.6191039 37.9790872C93.7237062 40.6987483 95.9203556 43.3138071 101.359678 43.3138071 105.43917 43.3138071 108.368035 41.6401694 108.368035 37.7698825 108.368035 35.6778354 107.426614 33.6903908 103.974737 32.9581743z"/>
      <polygon points="108.996 30.134 114.017 30.134 114.017 43 118.41 43 118.41 30.134 123.431 30.134 123.431 26.577 108.996 26.577"/>
      <path d="M134.937032 36.8284613C134.937032 38.7113036 134.100214 39.7573271 132.217371 39.7573271 130.334529 39.7573271 129.602313 38.6067013 129.602313 36.5146543L129.602313 26.5774309 125.104411 26.5774309 125.104411 36.3054496C125.104411 41.4309647 127.928675 43.4184094 132.112769 43.4184094 136.506068 43.4184094 139.121126 41.3263624 139.121126 36.3054496L139.121126 26.5774309 134.83243 26.5774309 134.83243 36.8284613 134.937032 36.8284613zM149.476759 26.5774309L142.049992 26.5774309 142.049992 43 149.476759 43C154.916081 43 158.263357 39.8619295 158.263357 34.8410166 158.367959 29.6108991 155.020684 26.5774309 149.476759 26.5774309zM148.953747 39.4435201L146.547893 39.4435201 146.547893 30.1339109 148.953747 30.1339109C152.091818 30.1339109 153.660853 31.9121508 153.660853 34.7364143 153.765456 37.9790872 151.987216 39.4435201 148.953747 39.4435201z"/>
      <rect width="4.498" height="16.423" x="160.774" y="26.577"/>
      <path d="M176.150359,25.9498168 C170.606434,25.9498168 167.154556,29.6108991 167.154556,34.7364143 C167.154556,40.1757365 170.606434,43.7322165 176.150359,43.7322165 C181.694283,43.7322165 185.250763,40.2803389 185.250763,34.7364143 C185.250763,29.5062968 181.798886,25.9498168 176.150359,25.9498168 Z M176.150359,39.9665318 C173.012288,39.9665318 171.861662,37.5606778 171.861662,34.7364143 C171.861662,31.9121508 173.012288,29.6108991 176.150359,29.6108991 C179.288429,29.6108991 180.439055,32.0167532 180.439055,34.7364143 C180.439055,37.5606778 179.393031,39.9665318 176.150359,39.9665318 Z"/>
      <rect width="4.508" height="16.46" y="1"/>
    </g>
  </g>
</svg>
