<svg xmlns="http://www.w3.org/2000/svg" width="415" height="100" viewBox="0 0 415 100">
  <path fill="#FFFFFF" fill-rule="evenodd" d="M190.082719,48.100668 L190.334931,48.100668 C192.415135,44.3809645 195.188594,42.8044188 199.223114,42.8044188 C200.168582,42.8044188 201.240374,42.9303326 201.240374,42.9303326 L201.240374,49.4245117 L200.483738,49.4245117 C195.755962,49.4245117 192.919559,50.8747064 190.587143,55.2882474 L190.587143,73.1317194 L183.148852,73.1317194 L183.148852,43.1825974 L190.082719,43.1825974 L190.082719,48.100668 Z M276.810476,48.3568676 C274.162904,48.3568676 271.704163,49.2395758 271.704163,51.5095218 C271.704163,56.5535062 286.581183,53.8419875 286.581183,64.2456153 C286.581183,71.7488536 279.899091,73.8290545 272.90228,73.8290545 C269.68734,73.8290545 266.450545,72.965146 264.139985,72.0566429 L264.139985,65.9402052 C266.913881,66.9051071 270.758696,67.839405 273.154492,67.839405 C276.557826,67.839405 278.891117,67.1460047 278.891117,64.5603998 C278.891117,59.3275447 264.014097,62.1015831 264.014097,51.3202139 C264.014097,45.7716999 269.057029,42.3672181 276.243108,42.3672181 C279.520991,42.3672181 282.357831,42.6820026 285.131291,43.5021911 L285.131291,49.6807113 C285.131291,49.6807113 281.080161,48.3568676 276.810476,48.3568676 Z M204.130105,57.9407441 C204.130105,49.8070623 209.110093,42.3672181 218.691968,42.3672181 C228.210463,42.3672181 231.551291,48.987311 231.551291,55.2921822 C231.551291,57.3732576 231.425403,58.5077934 231.299079,59.7057233 L212.135764,59.7057233 C212.325032,66.2632965 216.035217,67.7764481 221.579513,67.7764481 C224.605185,67.7764481 227.421044,67.0861082 230.542879,65.9402052 L230.542879,72.1270322 C226.667467,73.3179669 223.344124,73.8290545 219.498872,73.8290545 C209.990431,73.8290545 204.130105,69.100729 204.130105,57.9407441 Z M212.435184,54.860228 L224.033883,54.860228 C224.033883,51.2034813 222.836203,48.0508271 218.865064,48.0508271 C215.1457,48.0508271 212.876665,50.6993889 212.435184,54.860228 Z M249.709691,48.3568676 C247.062119,48.3568676 244.603378,49.2395758 244.603378,51.5095218 C244.603378,56.5535062 259.479961,53.8419875 259.479961,64.2456153 C259.479961,71.7488536 252.798306,73.8290545 245.801495,73.8290545 C242.586556,73.8290545 239.34976,72.965146 237.0392,72.0566429 L237.0392,65.9402052 C239.813533,66.9051071 243.658348,67.839405 246.053708,67.839405 C249.457916,67.839405 251.790332,67.1460047 251.790332,64.5603998 C251.790332,59.3275447 236.913312,62.1015831 236.913312,51.3202139 C236.913312,45.7716999 241.956244,42.3672181 249.14276,42.3672181 C252.420206,42.3672181 255.257047,42.6820026 258.030943,43.5021911 L258.030943,49.6807113 C258.030943,49.6807113 253.978939,48.3568676 249.709691,48.3568676 Z M291.551991,73.2314012 L291.551991,65.5388549 L299.015635,65.5388549 L299.015635,73.2314012 L291.551991,73.2314012 Z M319.491152,48.4198245 C314.952645,48.4198245 311.107393,50.8156843 311.107393,57.8143931 C311.107393,65.5060649 314.952645,67.7764481 319.869689,67.7764481 C322.201668,67.7764481 324.816456,67.2719185 328.220664,65.9476376 L328.220664,72.1270322 C325.194556,73.1356542 322.453443,73.8290545 318.923784,73.8290545 C307.766129,73.8290545 303.353946,67.4607892 303.353946,58.1925717 C303.353946,48.4198245 309.468233,42.3672181 319.364827,42.3672181 C323.084191,42.3672181 325.320443,42.9976615 327.842128,43.8169756 L327.842128,50.122284 C325.699417,49.3025327 322.516386,48.4198245 319.491152,48.4198245 Z M132.521526,43.2315639 L132.521526,31 L139.959818,31 L139.959818,73.2436428 L132.900063,73.2436428 L132.900063,70.4691672 C130.504266,72.4864112 126.533127,74 123.255243,74 C116.636532,74 111.025796,69.3975883 111.025796,59.435096 C111.025796,49.4105213 116.636532,42.5381636 126.911227,42.5381636 C128.739218,42.5381636 130.315435,42.7904284 132.521526,43.2315639 Z M132.698993,64.6286031 L132.698993,49.4336929 C131.438369,48.9291633 129.60994,48.4880278 127.84533,48.4880278 C122.171649,48.4880278 118.893766,52.0818175 118.893766,58.9541753 C118.893766,65.3224406 121.541337,68.0339593 125.638801,68.0339593 C128.034161,68.0339593 130.303633,66.8355922 132.698993,64.6286031 Z M96.5417376,48.100668 L96.7939498,48.100668 C98.8741536,44.3809645 101.647613,42.8044188 105.682133,42.8044188 C106.627601,42.8044188 107.699393,42.9303326 107.699393,42.9303326 L107.699393,49.4245117 L106.942757,49.4245117 C102.214981,49.4245117 99.3781407,50.8747064 97.0457248,55.2882474 L97.0457248,73.1317194 L89.6074336,73.1317194 L89.6074336,43.1825974 L96.5417376,43.1825974 L96.5417376,48.100668 Z M149.054316,31 L162.832006,31 C171.846076,31 178.401844,35.4760607 178.401844,44.6188017 C178.401844,53.6977113 171.846076,58.552825 162.832006,58.552825 L156.997032,58.552825 L156.997032,73.2436428 L149.054316,73.2436428 L149.054316,31 Z M156.922286,52.252763 L162.820204,52.252763 C167.800191,52.252763 170.006283,49.1630657 170.006283,44.4976971 C170.006283,39.7689343 167.610923,37.1208097 162.820204,37.1208097 L156.922286,37.1208097 L156.922286,52.252763 Z M53.7644602,58.1296148 C53.7644602,48.987311 58.6181233,42.3672181 68.8932547,42.3672181 C79.1050053,42.3672181 84.0220493,48.987311 84.0220493,58.1296148 C84.0220493,67.2719185 79.1050053,73.8290545 68.8932547,73.8290545 C58.6181233,73.8290545 53.7644602,67.2719185 53.7644602,58.1296148 Z M61.1953205,58.1978181 C61.1953205,64.7549541 63.7795115,67.9076083 68.6336117,67.9076083 C73.4872748,67.9076083 76.0089592,64.6919972 76.0089592,58.1978181 C76.0089592,51.640682 73.4872748,48.4880278 68.6336117,48.4880278 C63.7795115,48.4880278 61.1953205,51.7036389 61.1953205,58.1978181 Z M46.9835815,31 L54.6653427,31 L42.6120501,73.2432056 L33.7098794,73.2432056 L27.2655751,50.6578549 L20.3863468,73.2432056 L11.4841761,73.2432056 L0,31 L8.17044951,31 L16.2268135,64.4384208 L23.6340699,37.9313798 L21.6565868,31 L30.1522457,31 L38.5679136,63.3441074 L46.9835815,31 Z M395.269754,46.3391864 C398.610145,44.1326345 402.267002,42.3672181 405.481942,42.3672181 C411.533285,42.3672181 415,46.5914512 415,52.39223 L415,73.0726973 L407.562146,73.0726973 L407.562146,54.1572092 C407.562146,49.9329761 406.04931,48.6091324 403.59057,48.6091324 C401.447422,48.6091324 398.484694,49.8070623 395.710798,51.6354356 L395.710798,73.0726973 L388.272944,73.0726973 L388.272944,54.1572092 C388.272944,49.9329761 386.759671,48.6091324 384.301367,48.6091324 C382.15822,48.6091324 379.195492,49.7441054 376.422033,51.5724787 L376.422033,73.0726973 L368.920361,73.0726973 L368.920361,43.1235753 L375.980552,43.1235753 L375.980552,46.2128354 C379.32138,44.0062835 382.9778,42.3672181 386.192303,42.3672181 C389.659892,42.3672181 392.811451,43.565148 394.387231,46.9066729 L395.269754,46.3391864 Z M332.640278,58.1296148 C332.640278,48.987311 337.493941,42.3672181 347.769072,42.3672181 C357.98126,42.3672181 362.897867,48.987311 362.897867,58.1296148 C362.897867,67.2719185 357.98126,73.8290545 347.769072,73.8290545 C337.493941,73.8290545 332.640278,67.2719185 332.640278,58.1296148 Z M340.508248,58.1978181 C340.508248,64.7549541 343.092876,67.9076083 347.946539,67.9076083 C352.800639,67.9076083 355.321886,64.6919972 355.321886,58.1978181 C355.321886,51.640682 352.800639,48.4880278 347.946539,48.4880278 C343.092876,48.4880278 340.508248,51.7036389 340.508248,58.1978181 Z"/>
</svg>
