<svg xmlns="http://www.w3.org/2000/svg" width="289" height="414" viewBox="0 0 289 414">
  <g fill="none" fill-rule="evenodd" transform="translate(2 2)">
    <path fill="#927EE9" d="M213.119187,64.2817982 L158.504917,154.205622 L182.792229,217.952048 L128.431254,307.460391 L30.9415118,339.812131 L85.5557821,63.0704941 L198.392747,25.6275559 L213.119187,64.2817982 Z M213.715055,19.8914317 L189.469267,0 L60.7888697,42.6995017 L0,350.732471 L24.2374214,370.726709 L152.926185,327.922334 L207.785446,237.593364 L183.496058,173.849005 L238.110329,83.9251813 L213.715055,19.8914317 Z"/>
    <path fill="#FCFCFE" d="M237.369631,84.1787588 L182.755837,174.102582 L207.045013,237.849009 L152.682436,327.357351 L55.1935441,359.709092 L109.807338,82.9674547 L222.643319,45.5245165 L237.369631,84.1787588 Z M237.953308,39.7803203 L213.721993,19.8969606 L85.0406417,62.5964624 L24.2327771,370.722001 L48.2802058,390.666727 L177.17923,347.819295 L232.035937,257.492392 L207.74676,193.745966 L262.362631,103.822142 L237.953308,39.7803203 Z"/>
    <path fill="#D5CEF5" d="M260.739177,103.623833 L206.126983,193.545589 L230.414295,257.294083 L176.05332,346.802425 L77.97767,379.199191 L133.176141,102.408145 L245.805543,64.5201447 L260.739177,103.623833 Z M261.335044,59.2313991 L237.298032,39.2433249 L108.410935,82.0415361 L47.569694,389.951869 L71.8657773,409.96387 L200.548251,367.264368 L255.407512,276.937466 L231.118124,213.188972 L285.732394,123.267216 L261.335044,59.2313991 Z"/>
    <polygon fill="#000000" fill-opacity=".21" points="71.879 409.941 89.745 320.304 99.037 317.204" style="mix-blend-mode:darken"/>
    <polygon fill="#000000" fill-opacity=".22" points="261.383 59.256 204.659 78.349 200.041 85.852"/>
    <path stroke="#000000" stroke-opacity=".7" d="M200.216317,366.847704 L200.390783,366.789812 L200.120895,367.004817 L200.216317,366.847704 Z M254.8532,276.88695 L254.980156,276.677915 L254.940278,277.115491 L254.8532,276.88695 Z M231.672437,213.239491 L255.961824,276.987982 L200.880185,367.681033 L71.7609942,410.525447 L-0.548325283,350.928483 L60.3547624,42.3167414 L189.574049,-0.561577786 L261.755168,58.9297241 L286.286704,123.31774 L231.672437,213.239491 Z M203.406708,79.3104453 L133.609882,102.789769 L90.3808314,319.560521 L128.099314,307.043732 L182.237921,217.901531 L157.950608,154.155102 L203.406708,79.3104453 Z"/>
  </g>
</svg>
