<svg xmlns="http://www.w3.org/2000/svg" width="346" height="414" viewBox="0 0 346 414">
  <g fill="none" fill-rule="evenodd" transform="translate(1 2)">
    <path fill="#927EE9" d="M30.6946105,338.828965 L145.841929,14.3729973 L248.80256,58.1837258 L251.133997,250.41951 L140.731579,386.685441 L30.6946105,338.828965 Z M116.994393,0.792992953 L0.0593616964,333.144076 L136.127765,392.340516 L166.759536,398.022021 L281.745932,256.081118 L279.410471,63.833515 L147.623745,6.47207968"/>
    <path fill="#FFFFFF" d="M62.5583276,343.820469 L176.471282,20.0545017 L279.408838,63.8362446 L281.747,256.067407 L171.328654,392.377266 L62.5583276,343.820469 Z M147.623745,6.47207968 L30.6911322,338.823163 L166.765721,398.018139 L197.388889,403.69869 L312.400827,261.774049 L310.042241,69.5150194 L178.255516,12.1511664 L147.623745,6.47207968 Z"/>
    <path fill="#D5CEF5" d="M91.9568231,350.171972 L206.83795,24.5948689 L310.039977,69.5252157 L312.39854,261.777885 L201.967397,398.046735 L91.9568231,350.171972 Z M178.255516,12.1511664 L61.320485,344.502249 L197.388889,403.69869 L228.020659,409.380194 L343.004637,267.441709 L340.674011,75.1916885 L209.199376,17.8346062 L178.255516,12.1511664 Z"/>
    <polygon fill="#000000" points="228.062 409.403 149.887 375.38 155.595 368.345" opacity=".22"/>
    <polygon fill="#000000" points="208.9 41.203 202.009 38.278 209.22 17.838" opacity=".22"/>
    <path stroke="#000000" stroke-opacity=".7" d="M178.346662,11.6595442 L178.346699,11.6595512 L208.97847,17.3410555 L209.086826,17.3742127 L341.170055,74.8622809 L343.506789,267.616165 L228.221937,409.926055 L227.929475,409.871809 L197.297773,404.190318 L166.664138,398.512854 L136.036582,392.832132 L135.928299,392.799007 L-0.566701268,333.416976 L116.66477,0.223354632 L147.714891,5.98045747 L178.346662,11.6595442 Z M202.305643,38.9422276 L92.5832537,349.899289 L149.739666,374.772805 L250.631844,250.245038 L248.306553,58.5160529 L202.305643,38.9422276 Z"/>
  </g>
</svg>
