<svg xmlns="http://www.w3.org/2000/svg" width="435" height="414" viewBox="0 0 435 414">
  <g fill="none" fill-rule="evenodd" transform="translate(1 2)">
    <path fill="#927EE9" d="M214.156037,210.917959 L236.401767,188.476925 L200.779706,74.5511004 L267.374074,67.317041 L358.504802,361.010785 L121.001521,385.949158 L36.9127066,115.018479 L214.156037,210.917959 Z M192.890504,54.6620246 L170.583607,77.0718212 L200.944206,169.385385 L22.7709619,71.6623216 L0.450398959,94.1799887 L98.2109999,409.161397 L365.317346,382.510683 L387.843673,359.8572 L289.676676,44.7766987 L192.890504,54.6620246 Z"/>
    <path fill="#FFFFFF" d="M236.393791,188.482012 L258.365859,166.8243 L222.883355,52.5055331 L289.677363,44.7892743 L380.937159,339.055508 L143.107694,363.90359 L59.0188803,92.9703865 L236.393791,188.482012 Z M215.217451,32.2009647 L192.876504,54.6618244 L221.895976,145.993385 L45.0369627,49.1993811 L22.776472,71.6602023 L120.498402,386.700332 L387.850031,359.846487 L410.182192,337.397419 L311.986264,22.3778782 L215.217451,32.2009647 Z"/>
    <path fill="#D5CEF5" d="M258.365859,166.8243 L281.08613,143.625282 L244.253726,30.4748246 L311.985625,22.3776461 L403.732478,317.953017 L165.211343,341.855498 L81.1225287,70.9248192 L257.355753,166.281368 L258.365859,166.8243 Z M237.460216,9.7094331 L215.183062,32.2039395 L244.128958,123.440397 L67.314061,26.7237635 L45.0423573,49.1789975 L142.98799,364.381344 L410.187856,337.382853 L432.387654,315.05288 L334.37906,0.0457755936 L237.460216,9.7094331 Z"/>
    <polygon fill="#000000" fill-opacity=".22" points="432.404 315.036 346.917 323.655 342.435 309.185"/>
    <polygon fill="#000000" points="256.658 68.488 253.14 8.134 237.475 9.713" opacity=".22"/>
    <polygon fill="#000000" fill-opacity=".22" points="95.318 42.04 106.528 152.711 67.413 26.785"/>
    <polygon fill="#000000" fill-opacity=".22" points="244.139 123.451 173.065 84.564 170.58 77.058"/>
    <path stroke="#000000" stroke-opacity=".7" d="M172.175466,83.5123783 L170.012772,76.9365506 L170.229241,76.7190823 L192.525329,54.3201446 L214.83515,31.8763133 L237.231366,9.2297722 L334.735313,-0.492225244 L432.95454,315.191871 L365.545458,382.990406 L97.8544673,409.699453 L-0.116165897,94.0413276 L67.2238635,26.1045133 L172.175466,83.5123783 Z M107.333587,153.688977 L165.567868,341.317419 L346.272844,323.277127 L267.018598,67.8585974 L257.313682,68.9128296 L281.656121,143.761228 L214.246908,211.535621 L107.333587,153.688977 Z"/>
  </g>
</svg>
