<svg xmlns="http://www.w3.org/2000/svg" width="287" height="414" viewBox="0 0 287 414">
  <g fill="none" fill-rule="evenodd" transform="translate(2 2)">
    <path fill="#927EE9" d="M106.294875,205.274952 L84.7958969,46.5649678 L227.36816,168.028051 L250.325973,327.342179 L106.294875,205.274952 Z M256.957679,373.432639 L283.153366,355.167678 L253.5754,149.787195 L78.5552544,0.647551316 L52.3630849,18.9225099 L80.1085555,223.5311 L256.957679,373.432639 Z"/>
    <path fill="#FCFCFE" d="M80.118257,223.537617 L58.6140212,64.811822 L200.988553,186.158266 L224.097964,345.578008 L80.118257,223.537617 Z M52.3854129,18.8983675 L26.1692558,37.1723868 L53.9031173,241.783279 L230.7093,391.70882 L256.960789,373.42416 L227.404813,168.030804 L52.3854129,18.8983675 Z"/>
    <path fill="#D5CEF5" d="M53.8953028,241.777349 L32.4351819,83.0409025 L174.99704,204.480584 L197.943937,363.913583 L53.8953028,241.777349 Z M26.2817296,37.076879 L0,55.4329346 L27.6759109,260.011594 L204.582448,409.918127 L230.737812,391.686677 L201.217654,186.28215 L26.2817296,37.076879 Z"/>
    <polygon fill="#000000" fill-opacity=".22" points="204.599 409.908 184.672 271.693 174.393 262.99"/>
    <path stroke="#000000" stroke-opacity=".7" d="M78.5857946,0.0166655309 L254.043385,149.529068 L283.692215,355.401613 L204.552691,410.548283 L27.2061674,260.268916 L-0.536411807,55.197448 L78.5857946,0.0166655309 Z M97.8825079,139.448271 L106.764583,205.017619 L183.989017,270.465794 L174.529044,204.738743 L97.8825079,139.448271 Z"/>
  </g>
</svg>
