<svg xmlns="http://www.w3.org/2000/svg" width="289" height="414" viewBox="0 0 289 414"><g fill="none" fill-rule="evenodd"><path fill="#947DE8" d="M215.12 66.282l-54.615 89.924 24.287 63.746-54.36 89.508-97.49 32.352L87.556 65.07l112.837-37.442 14.726 38.654zm.595-44.39L191.47 2 62.79 44.7 2 352.732l24.237 19.995 128.69-42.805 54.858-90.329-24.289-63.744 54.614-89.924-24.395-64.034z"/><path fill="#FCFCFE" d="M239.37 86.179l-54.614 89.924 24.289 63.746-54.363 89.508-97.488 32.352 54.613-276.742 112.836-37.442 14.727 38.654zm.583-44.399l-24.231-19.883-128.681 42.7-60.808 308.125 24.047 19.945 128.9-42.848 54.856-90.327-24.29-63.746 54.617-89.924-24.41-64.042z"/><path fill="#E0D9FA" d="M262.74 105.624l-54.613 89.922 24.287 63.748-54.36 89.508L79.977 381.2l55.198-276.79 112.63-37.889 14.933 39.104zm.595-44.393l-24.037-19.988-128.887 42.799-60.841 307.91 24.296 20.012 128.682-42.7 54.86-90.327-24.29-63.748 54.614-89.922-24.397-64.036z"/><path fill="#000" fill-opacity=".21" style="mix-blend-mode:darken" d="M73.879 411.941l17.866-89.637 9.292-3.1z"/><path fill="#000" fill-opacity=".22" d="M263.383 61.256l-56.724 19.093-4.618 7.503z"/><path stroke="#2D284F" d="M202.216 368.848l.175-.058-.27.215.095-.157zm54.637-89.961l.127-.21-.04.438-.087-.228zm-23.18-63.648l24.289 63.749-55.082 90.693-129.119 42.844-72.31-59.597L62.356 44.317 191.574 1.438l72.181 59.492 24.532 64.388-54.615 89.921zM205.406 81.31l-69.797 23.48-43.23 216.77 37.72-12.516 54.138-89.142-24.287-63.747 45.456-74.845z"/></g></svg>