<svg xmlns="http://www.w3.org/2000/svg" width="435" height="414" viewBox="0 0 435 414"><g fill="none" fill-rule="evenodd"><path fill="#927EE9" d="M215.156 212.918l22.246-22.441L201.78 76.55l66.594-7.234 91.13 293.694-237.502 24.938-84.09-270.93 177.244 95.899zM193.891 56.662l-22.307 22.41 30.36 92.313L23.771 73.662 1.451 96.18l97.76 314.981 267.106-26.65 22.527-22.654-98.167-315.08-96.786 9.885z"/><path fill="#FFF" d="M237.394 190.482l21.972-21.658-35.483-114.318 66.794-7.717 91.26 294.267-237.83 24.848L60.02 94.97l177.375 95.512zM216.217 34.201l-22.34 22.46 29.019 91.332L46.037 51.2l-22.26 22.46 97.721 315.04 267.352-26.854 22.332-22.449-98.196-315.02-96.769 9.824z"/><path fill="#D5CEF5" d="M259.366 168.824l22.72-23.199-36.832-113.15 67.732-8.097 91.746 295.575-238.52 23.902-84.09-270.93 176.234 95.356 1.01.543zM238.46 11.71l-22.277 22.495 28.946 91.236L68.314 28.724 46.042 51.179l97.946 315.202 267.2-26.998 22.2-22.33L335.379 2.046l-96.919 9.663z"/><path fill="#000" fill-opacity=".22" d="M433.404 317.036l-85.487 8.619-4.482-14.47z"/><path fill="#000" opacity=".22" d="M257.658 70.488l-3.518-60.354-15.665 1.579z"/><path fill="#000" fill-opacity=".22" d="M96.318 44.04l11.21 110.671L68.413 28.785zm148.821 81.411l-71.074-38.887-2.485-7.506z"/><path stroke="#000" stroke-opacity=".7" d="M173.175 85.512l-2.162-6.575.216-.218 22.296-22.399 22.31-22.444 22.396-22.646 97.504-9.722 98.22 315.684-67.41 67.798-267.69 26.71L.883 96.04l67.34-67.936 104.951 57.407zm-64.841 70.177l58.234 187.628 180.705-18.04L268.019 69.86l-9.705 1.054 24.342 74.848-67.41 67.775-106.912-57.847z"/></g></svg>